<svg xmlns="http://www.w3.org/2000/svg" xmlns:xlink="http://www.w3.org/1999/xlink" width="118" height="118" viewBox="0 0 118 118">
  <defs>
    <linearGradient id="linear-gradient" y1="0.5" x2="0.938" y2="0.5" gradientUnits="objectBoundingBox">
      <stop offset="0" stop-color="#fdae56"/>
      <stop offset="1" stop-color="#fe8f5a"/>
    </linearGradient>
  </defs>
  <g id="Group_4" data-name="Group 4" transform="translate(-976 -151)">
    <circle id="Ellipse_1" data-name="Ellipse 1" cx="59" cy="59" r="59" transform="translate(976 151)" fill="url(#linear-gradient)"/>
    <g id="avatar" transform="translate(969.555 174.536)">
      <path id="Path_2" data-name="Path 2" d="M155.681,35.8a17.9,17.9,0,1,1,17.9-17.9A17.919,17.919,0,0,1,155.681,35.8Zm0-31.322A13.424,13.424,0,1,0,169.1,17.9,13.439,13.439,0,0,0,155.681,4.475Z" transform="translate(-89.913)" fill="#fff" stroke="#fff" stroke-width="1"/>
      <path id="Path_3" data-name="Path 3" d="M94.853,342.349H36.682a2.236,2.236,0,0,1-2.237-2.237v-15.4a6.709,6.709,0,0,1,3.083-5.672c16.8-10.481,39.693-10.479,56.477,0a6.713,6.713,0,0,1,3.085,5.674v15.4A2.236,2.236,0,0,1,94.853,342.349ZM38.92,337.875h53.7V324.711a2.207,2.207,0,0,0-.981-1.879c-15.362-9.589-36.361-9.6-51.736,0a2.2,2.2,0,0,0-.979,1.877Z" transform="translate(0 -270.755)" fill="#fff" stroke="#fff" stroke-width="1"/>
    </g>
  </g>
</svg>
