<svg xmlns="http://www.w3.org/2000/svg" xmlns:xlink="http://www.w3.org/1999/xlink" width="406.5" height="411.82" viewBox="0 0 406.5 411.82">
  <defs>
    <linearGradient id="linear-gradient" x1="0.801" y1="0.202" x2="0.192" y2="1" gradientUnits="objectBoundingBox">
      <stop offset="0" stop-color="#fa6a81"/>
      <stop offset="1" stop-color="#c54879"/>
    </linearGradient>
    <linearGradient id="linear-gradient-2" x1="0.584" x2="0.341" y2="1" gradientUnits="objectBoundingBox">
      <stop offset="0" stop-color="#fa6a81"/>
      <stop offset="1" stop-color="#c54878"/>
    </linearGradient>
    <linearGradient id="linear-gradient-3" x1="0.897" y1="0.213" x2="0" y2="0.828" gradientUnits="objectBoundingBox">
      <stop offset="0" stop-color="#fb6a81"/>
      <stop offset="1" stop-color="#c44778"/>
    </linearGradient>
  </defs>
  <g id="Group_9" data-name="Group 9" transform="translate(0 0)">
    <path id="Path_46" data-name="Path 46" d="M586.854,230.219C564.093,140.714,485.443,76.1,393.125,73.512c-48.806-1.37-100.163,14.817-137.554,71.46-66.842,101.255,4.108,171.226,53.572,204.474a309.509,309.509,0,0,1,63.974,57.5c33.411,39.648,97.687,88.916,174.237,11.72C602.836,362.715,602.016,289.838,586.854,230.219Z" transform="translate(-228.298 -73.433)" fill="#f2f2f2"/>
    <path id="Path_47" data-name="Path 47" d="M656.1,706.3c0,17.641-82.964,48.941-185.3,48.941s-175.59-63.429-175.59-81.07,73.25,17.185,175.59,17.185S656.1,688.66,656.1,706.3Z" transform="translate(-258.621 -343.423)" fill="#3f3d56"/>
    <path id="Path_48" data-name="Path 48" d="M656.1,706.3c0,17.641-82.964,48.941-185.3,48.941s-175.59-63.429-175.59-81.07,73.25,17.185,175.59,17.185S656.1,688.66,656.1,706.3Z" transform="translate(-258.621 -343.423)" opacity="0.1"/>
    <path id="Path_49" data-name="Path 49" d="M656.1,703.75c0,17.641-82.964,31.942-185.3,31.942s-175.59-46.244-175.59-63.885,73.25,0,175.59,0S656.1,686.109,656.1,703.75Z" transform="translate(-258.621 -341.058)" fill="#3f3d56"/>
    <g id="Group_7" data-name="Group 7" transform="translate(330.33 57.399)" opacity="0.7">
      <path id="Path_50" data-name="Path 50" d="M901.105,217.152c-6.721,13.046-28.025,28.419-41.071,21.7s-12.894-32.992-6.173-46.038a26.573,26.573,0,1,1,47.244,24.34Z" transform="translate(-840.088 -178.403)" fill="url(#linear-gradient)"/>
      <path id="Path_51" data-name="Path 51" d="M867.126,289.537a4.4,4.4,0,0,0-4.554-2.346l2.346-4.554,4.554,2.346Z" transform="translate(-846.075 -225.641)" fill="#6c63ff"/>
      <path id="Path_52" data-name="Path 52" d="M864.83,286.635a5.634,5.634,0,0,0,4.571,2.332" transform="translate(-847.099 -227.453)" fill="none" stroke="#2f2e41" stroke-miterlimit="10" stroke-width="2"/>
      <ellipse id="Ellipse_8" data-name="Ellipse 8" cx="6.723" cy="5.603" rx="6.723" ry="5.603" transform="translate(44.288 25.089) rotate(-62.742)" fill="#fff" opacity="0.4"/>
      <line id="Line_1" data-name="Line 1" x1="19.825" y2="49.887" transform="translate(0 60.609)" fill="none" stroke="#2f2e41" stroke-miterlimit="10" stroke-width="2"/>
    </g>
    <path id="Path_53" data-name="Path 53" d="M891.958,342.166c-14.715,14.846-50.237,26.61-65.082,11.895s-3.394-50.339,11.321-65.185a37.849,37.849,0,1,1,53.761,53.29Z" transform="translate(-496.425 -165.993)" fill="#c44778"/>
    <path id="Path_54" data-name="Path 54" d="M828.369,418.254a6.27,6.27,0,0,0-5.182-5.136l5.136-5.182,5.182,5.136Z" transform="translate(-497.896 -225.027)" fill="#ff6584"/>
    <path id="Path_55" data-name="Path 55" d="M828.108,412.5a8.026,8.026,0,0,0,5.212,5.124" transform="translate(-500.126 -227.095)" fill="none" stroke="#2f2e41" stroke-miterlimit="10" stroke-width="2"/>
    <line id="Line_2" data-name="Line 2" x1="48.795" y2="49.226" transform="translate(280.666 189.321)" fill="none" stroke="#2f2e41" stroke-miterlimit="10" stroke-width="2"/>
    <ellipse id="Ellipse_9" data-name="Ellipse 9" cx="9.576" cy="7.98" rx="9.576" ry="7.98" transform="translate(378.653 150.455) rotate(-45.252)" fill="#fff" opacity="0.4"/>
    <path id="Path_56" data-name="Path 56" d="M805.419,269.01c-4.849,20.333-29.071,48.854-49.4,44s-29.077-41.232-24.228-61.565a37.849,37.849,0,0,1,73.632,17.56Z" transform="translate(-455.881 -140.931)" fill="url(#linear-gradient-2)"/>
    <path id="Path_57" data-name="Path 57" d="M776.24,388.891a6.27,6.27,0,0,0-7.1-1.693l1.693-7.1,7.1,1.693Z" transform="translate(-473.404 -212.412)" fill="#ff6584"/>
    <path id="Path_58" data-name="Path 58" d="M770.79,386.324a8.026,8.026,0,0,0,7.117,1.666" transform="translate(-474.15 -215.232)" fill="none" stroke="#2f2e41" stroke-miterlimit="10" stroke-width="2"/>
    <ellipse id="Ellipse_10" data-name="Ellipse 10" cx="9.576" cy="7.98" rx="9.576" ry="7.98" transform="translate(321.745 114.889) rotate(-76.586)" fill="#fff" opacity="0.4"/>
    <line id="Line_3" data-name="Line 3" x1="16.079" y2="67.422" transform="translate(283.942 173.658)" fill="none" stroke="#2f2e41" stroke-miterlimit="10" stroke-width="2"/>
    <g id="Group_8" data-name="Group 8" transform="translate(73.454 260.522)" opacity="0.8">
      <path id="Path_59" data-name="Path 59" d="M413.337,595.717c-10.57,10.285-35.778,18.133-46.063,7.563s-1.754-35.554,8.816-45.84a26.7,26.7,0,1,1,37.247,38.277Z" transform="translate(-362.63 -549.874)" fill="url(#linear-gradient-3)"/>
      <path id="Path_60" data-name="Path 60" d="M368.056,648.165a4.424,4.424,0,0,0-3.59-3.689l3.689-3.59,3.59,3.689Z" transform="translate(-363.462 -591.119)" fill="#6c63ff"/>
      <path id="Path_61" data-name="Path 61" d="M368,644.047a5.663,5.663,0,0,0,3.612,3.681" transform="translate(-365.064 -592.552)" fill="none" stroke="#2f2e41" stroke-miterlimit="10" stroke-width="2"/>
      <ellipse id="Ellipse_11" data-name="Ellipse 11" cx="6.756" cy="5.63" rx="6.756" ry="5.63" transform="matrix(0.717, -0.697, 0.697, 0.717, 39.125, 27.481)" fill="#fff" opacity="0.4"/>
    </g>
    <path id="Path_62" data-name="Path 62" d="M421.635,163.886h7.426a18.369,18.369,0,0,1,18.369,18.369v25.794H403.266V182.254a18.369,18.369,0,0,1,18.369-18.368Z" transform="translate(-182.756 -74.272)" fill="#2f2e41"/>
    <path id="Path_63" data-name="Path 63" d="M620.456,447.616l-5.573,11.718s-4.543,15.742.6,17.424S621.64,460.6,621.64,460.6l4.263-11.811Z" transform="translate(-402.656 -243.009)" fill="#ffb9b9"/>
    <path id="Path_64" data-name="Path 64" d="M620.456,447.616l-5.573,11.718s-4.543,15.742.6,17.424S621.64,460.6,621.64,460.6l4.263-11.811Z" transform="translate(-402.656 -243.009)" opacity="0.1"/>
    <path id="Path_65" data-name="Path 65" d="M394.4,340.643l-7.049,24.67,11.161,5.874v-29.37Z" transform="translate(-175.544 -154.376)" fill="#575a89"/>
    <path id="Path_66" data-name="Path 66" d="M659.071,293s-.587,9.4-1.762,9.4-3.524,11.16-3.524,11.16l9.986,6.461,12.335-11.16-3.524-8.811A13.119,13.119,0,0,1,671.406,293C671.993,289.478,659.071,293,659.071,293Z" transform="translate(-421.124 -172.23)" fill="#ffb9b9"/>
    <path id="Path_67" data-name="Path 67" d="M659.071,293s-.587,9.4-1.762,9.4-3.524,11.16-3.524,11.16l9.986,6.461,12.335-11.16-3.524-8.811A13.119,13.119,0,0,1,671.406,293C671.993,289.478,659.071,293,659.071,293Z" transform="translate(-421.124 -172.23)" opacity="0.1"/>
    <path id="Path_68" data-name="Path 68" d="M731.128,463.641l1.175,12.923s4.112,15.86,9.4,14.685-2.937-17.034-2.937-17.034l-2.35-12.335Z" transform="translate(-456.176 -249.473)" fill="#ffb9b9"/>
    <path id="Path_69" data-name="Path 69" d="M684.936,696.517s3.524,21.733,1.175,25.845,2.35,4.7,2.35,4.7l14.1-3.524v-6.461s-4.7-21.146-4.7-22.321S684.936,696.517,684.936,696.517Z" transform="translate(-435.242 -354.885)" fill="#ffb9b9"/>
    <path id="Path_70" data-name="Path 70" d="M632.3,500.414s4.112,42.292,10.573,55.8,12.335,50.516,15.272,51.1,25.258-3.524,28.195-5.874-19.971-59.327-19.971-59.914-5.287-52.865-5.287-52.865l-7.049-11.748Z" transform="translate(-411.388 -256.289)" fill="#2f2e41"/>
    <path id="Path_71" data-name="Path 71" d="M632.3,500.414s4.112,42.292,10.573,55.8,12.335,50.516,15.272,51.1,25.258-3.524,28.195-5.874-19.971-59.327-19.971-59.914-5.287-52.865-5.287-52.865l-7.049-11.748Z" transform="translate(-411.388 -256.289)" opacity="0.1"/>
    <path id="Path_72" data-name="Path 72" d="M672.909,736.93s-5.874-2.937-7.049-1.175l-4.7,7.049s-19.971,9.4-12.923,10.573,20.559,1.175,22.321,0,21.146-11.748,20.559-12.335-5.286-12.923-5.874-11.748S676.434,739.279,672.909,736.93Z" transform="translate(-417.928 -370.627)" fill="#2f2e41"/>
    <path id="Path_73" data-name="Path 73" d="M495.2,652.015s-13.51,9.4-19.971,7.636,0,12.923,0,12.923l11.748,6.461L490.5,676.1s12.335-16.447,17.622-17.034S495.2,652.015,495.2,652.015Z" transform="translate(-338.905 -335.641)" fill="#ffb9b9"/>
    <path id="Path_74" data-name="Path 74" d="M571.207,447.157l2.35,12.335L529.5,526.455s-26.433,26.433-24.083,29.37,17.034,19.971,20.559,17.622,85.172-90.458,84.584-102.207-19.971-34.069-19.971-34.069l-19.384,8.811Z" transform="translate(-353.82 -238.276)" fill="#2f2e41"/>
    <path id="Path_75" data-name="Path 75" d="M461.469,662.264s5.287-5.874,2.35-6.461a87.718,87.718,0,0,0-9.986-1.175c-1.175,0-17.034-8.224-18.209-5.287s7.049,18.209,11.748,19.971,21.734,14.1,21.734,14.1,8.811-7.636,7.636-9.4S459.119,668.726,461.469,662.264Z" transform="translate(-322.204 -334.143)" fill="#2f2e41"/>
    <circle id="Ellipse_12" data-name="Ellipse 12" cx="14.097" cy="14.097" r="14.097" transform="translate(228.548 98.451)" fill="#ffb9b9"/>
    <path id="Path_76" data-name="Path 76" d="M652.161,315.5s-9.986.587-12.923-1.175-9.4,24.083-9.4,24.083l-4.112,34.069a22.059,22.059,0,0,0,0,6.461c.587,2.35-5.874-1.175-3.524,5.287s-1.762,9.4,2.35,9.986,25.845-8.224,25.845-8.224l9.986-52.278,2.937-21.146Z" transform="translate(-406.578 -181.804)" fill="#d0cde1"/>
    <path id="Path_77" data-name="Path 77" d="M645.362,308.818s-5.411-1.1-7.173.073-8.224,9.986-8.224,12.335-2.35,28.195-2.35,30.544-1.762,14.685-1.762,15.86a48.624,48.624,0,0,0,1.507,6.224l3.78-6.811s-1.175-8.811,2.937-22.908S645.362,308.818,645.362,308.818Z" transform="translate(-408.467 -179.895)" fill="#575a89"/>
    <path id="Path_78" data-name="Path 78" d="M656.891,316.138s7.847-12.335,8.329-11.16,9.293,2.937,9.293,2.937,15.86,11.16,14.685,15.86-9.4,39.943-9.4,39.943-7.636,18.209-1.762,31.132-1.175,17.622-1.175,17.622-4.7,2.35-3.524,4.7-13.51,11.16-15.272,4.7-23.5-45.229-18.8-59.327S656.891,316.138,656.891,316.138Z" transform="translate(-414.246 -178.331)" fill="#575a89"/>
    <path id="Path_79" data-name="Path 79" d="M717.968,336.2s6.461,12.335,5.287,14.1,4.112,12.335,4.112,12.335a4.068,4.068,0,0,0,0,2.937c.587,1.762,4.112,9.4,4.112,12.335s-.587,12.335,0,16.447,8.224,14.1,1.762,14.685-17.034,5.874-16.447,0,2.35-19.971,0-22.321-4.112-2.35-2.937-5.287-5.287-10.573-5.287-10.573Z" transform="translate(-445.953 -192.514)" fill="#575a89"/>
    <path id="Path_80" data-name="Path 80" d="M442.626,189.861h-22.3l-5.049-11.6h31.132Z" transform="translate(-188.201 -80.785)" fill="#2f2e41"/>
    <ellipse id="Ellipse_13" data-name="Ellipse 13" cx="1.123" cy="2.994" rx="1.123" ry="2.994" transform="translate(226.458 112.128) rotate(-16.16)" fill="#ffb9b9"/>
    <ellipse id="Ellipse_14" data-name="Ellipse 14" cx="2.994" cy="1.123" rx="2.994" ry="1.123" transform="translate(254.527 117.252) rotate(-73.84)" fill="#ffb9b9"/>
    <path id="Path_81" data-name="Path 81" d="M910.18,666.72c0,13.644-8.11,18.408-18.116,18.408-.233,0-.465,0-.695-.006q-.7-.019-1.376-.066c-9.031-.638-16.045-5.647-16.045-18.336,0-13.129,16.774-29.7,18.04-30.927h0v0c.047-.044.072-.069.072-.069S910.18,653.076,910.18,666.72Z" transform="translate(-520.901 -328.257)" fill="#f2f2f2"/>
    <path id="Path_82" data-name="Path 82" d="M899.838,683.041l6.624-9.257-6.64,10.272-.019,1.065q-.7-.019-1.376-.066l.713-13.647-.006-.107.013-.019.069-1.292-6.659-10.3,6.677,9.33.016.276.541-10.313-5.7-10.643,5.769,8.83.563-21.381,0-.072v.069l-.094,16.862,5.675-6.684-5.7,8.136-.148,9.235,5.3-8.861-5.32,10.219-.085,5.135,7.693-12.334-7.721,14.125Z" transform="translate(-529.334 -328.257)" fill="#3f3d56"/>
  </g>
</svg>
